<svg id="visual" viewBox="0 0 900 600" width="900" height="600" xmlns="http://www.w3.org/2000/svg" xmlns:xlink="http://www.w3.org/1999/xlink" version="1.1"><rect x="0" y="0" width="900" height="600" fill="#001220"></rect><path d="M0 209L21.5 203.7C43 198.3 86 187.7 128.8 187.3C171.7 187 214.3 197 257.2 199.3C300 201.7 343 196.3 385.8 193.2C428.7 190 471.3 189 514.2 182.8C557 176.7 600 165.3 642.8 168.2C685.7 171 728.3 188 771.2 188.5C814 189 857 173 878.5 165L900 157L900 0L878.5 0C857 0 814 0 771.2 0C728.3 0 685.7 0 642.8 0C600 0 557 0 514.2 0C471.3 0 428.7 0 385.8 0C343 0 300 0 257.2 0C214.3 0 171.7 0 128.8 0C86 0 43 0 21.5 0L0 0Z" fill="#fa7268"></path><path d="M0 172L21.5 167.2C43 162.3 86 152.7 128.8 145.8C171.7 139 214.3 135 257.2 140.7C300 146.3 343 161.7 385.8 173.8C428.7 186 471.3 195 514.2 191.3C557 187.7 600 171.3 642.8 161.5C685.7 151.7 728.3 148.3 771.2 152.7C814 157 857 169 878.5 175L900 181L900 0L878.5 0C857 0 814 0 771.2 0C728.3 0 685.7 0 642.8 0C600 0 557 0 514.2 0C471.3 0 428.7 0 385.8 0C343 0 300 0 257.2 0C214.3 0 171.7 0 128.8 0C86 0 43 0 21.5 0L0 0Z" fill="#ef5f67"></path><path d="M0 143L21.5 141.3C43 139.7 86 136.3 128.8 129.7C171.7 123 214.3 113 257.2 115.3C300 117.7 343 132.3 385.8 140.5C428.7 148.7 471.3 150.3 514.2 142.7C557 135 600 118 642.8 116.7C685.7 115.3 728.3 129.7 771.2 137.2C814 144.7 857 145.3 878.5 145.7L900 146L900 0L878.5 0C857 0 814 0 771.2 0C728.3 0 685.7 0 642.8 0C600 0 557 0 514.2 0C471.3 0 428.7 0 385.8 0C343 0 300 0 257.2 0C214.3 0 171.7 0 128.8 0C86 0 43 0 21.5 0L0 0Z" fill="#e34c67"></path><path d="M0 107L21.5 100.3C43 93.7 86 80.3 128.8 74.2C171.7 68 214.3 69 257.2 73.8C300 78.7 343 87.3 385.8 91.3C428.7 95.3 471.3 94.7 514.2 90.7C557 86.7 600 79.3 642.8 78.8C685.7 78.3 728.3 84.7 771.2 85C814 85.3 857 79.7 878.5 76.8L900 74L900 0L878.5 0C857 0 814 0 771.2 0C728.3 0 685.7 0 642.8 0C600 0 557 0 514.2 0C471.3 0 428.7 0 385.8 0C343 0 300 0 257.2 0C214.3 0 171.7 0 128.8 0C86 0 43 0 21.5 0L0 0Z" fill="#d53867"></path><path d="M0 33L21.5 38C43 43 86 53 128.8 52C171.7 51 214.3 39 257.2 36.2C300 33.3 343 39.7 385.8 42.8C428.7 46 471.3 46 514.2 48.2C557 50.3 600 54.7 642.8 55.7C685.7 56.7 728.3 54.3 771.2 55.8C814 57.3 857 62.7 878.5 65.3L900 68L900 0L878.5 0C857 0 814 0 771.2 0C728.3 0 685.7 0 642.8 0C600 0 557 0 514.2 0C471.3 0 428.7 0 385.8 0C343 0 300 0 257.2 0C214.3 0 171.7 0 128.8 0C86 0 43 0 21.5 0L0 0Z" fill="#c62368"></path></svg>