<svg id="visual" viewBox="0 0 900 600" width="400" height="300" xmlns="http://www.w3.org/2000/svg" xmlns:xlink="http://www.w3.org/1999/xlink" version="1.1"><rect x="0" y="0" width="900" height="600" fill="#7366c5"></rect><path d="M0 414L21.5 405.2C43 396.3 86 378.7 128.8 372.2C171.7 365.7 214.3 370.3 257.2 374.7C300 379 343 383 385.8 381.7C428.7 380.3 471.3 373.7 514.2 382.7C557 391.7 600 416.3 642.8 414.8C685.7 413.3 728.3 385.7 771.2 386.8C814 388 857 418 878.5 433L900 448L900 601L878.5 601C857 601 814 601 771.2 601C728.3 601 685.7 601 642.8 601C600 601 557 601 514.2 601C471.3 601 428.7 601 385.8 601C343 601 300 601 257.2 601C214.3 601 171.7 601 128.8 601C86 601 43 601 21.5 601L0 601Z" fill="#fa7268"></path><path d="M0 443L21.5 437C43 431 86 419 128.8 419.5C171.7 420 214.3 433 257.2 434.7C300 436.3 343 426.7 385.8 421.3C428.7 416 471.3 415 514.2 412.8C557 410.7 600 407.3 642.8 411.2C685.7 415 728.3 426 771.2 433.7C814 441.3 857 445.7 878.5 447.8L900 450L900 601L878.5 601C857 601 814 601 771.2 601C728.3 601 685.7 601 642.8 601C600 601 557 601 514.2 601C471.3 601 428.7 601 385.8 601C343 601 300 601 257.2 601C214.3 601 171.7 601 128.8 601C86 601 43 601 21.5 601L0 601Z" fill="#ef5f67"></path><path d="M0 462L21.5 469.2C43 476.3 86 490.7 128.8 495.2C171.7 499.7 214.3 494.3 257.2 494.5C300 494.7 343 500.3 385.8 491.7C428.7 483 471.3 460 514.2 449C557 438 600 439 642.8 444.7C685.7 450.3 728.3 460.7 771.2 472.3C814 484 857 497 878.5 503.5L900 510L900 601L878.5 601C857 601 814 601 771.2 601C728.3 601 685.7 601 642.8 601C600 601 557 601 514.2 601C471.3 601 428.7 601 385.8 601C343 601 300 601 257.2 601C214.3 601 171.7 601 128.8 601C86 601 43 601 21.5 601L0 601Z" fill="#e34c67"></path><path d="M0 542L21.5 539.5C43 537 86 532 128.8 528.8C171.7 525.7 214.3 524.3 257.2 525.3C300 526.3 343 529.7 385.8 525.7C428.7 521.7 471.3 510.3 514.2 508.2C557 506 600 513 642.8 515C685.7 517 728.3 514 771.2 508.5C814 503 857 495 878.5 491L900 487L900 601L878.5 601C857 601 814 601 771.2 601C728.3 601 685.7 601 642.8 601C600 601 557 601 514.2 601C471.3 601 428.7 601 385.8 601C343 601 300 601 257.2 601C214.3 601 171.7 601 128.8 601C86 601 43 601 21.5 601L0 601Z" fill="#d53867"></path><path d="M0 561L21.5 558.2C43 555.3 86 549.7 128.8 546.7C171.7 543.7 214.3 543.3 257.2 546.7C300 550 343 557 385.8 561.5C428.7 566 471.3 568 514.2 565.8C557 563.7 600 557.3 642.8 553.8C685.7 550.3 728.3 549.7 771.2 550C814 550.3 857 551.7 878.5 552.3L900 553L900 601L878.5 601C857 601 814 601 771.2 601C728.3 601 685.7 601 642.8 601C600 601 557 601 514.2 601C471.3 601 428.7 601 385.8 601C343 601 300 601 257.2 601C214.3 601 171.7 601 128.8 601C86 601 43 601 21.5 601L0 601Z" fill="#c62368"></path></svg>